<svg xmlns="http://www.w3.org/2000/svg" xmlns:xlink="http://www.w3.org/1999/xlink" viewBox="0,0,256,256" width="50px" height="50px"><g fill="#fbc51f" fill-rule="nonzero" stroke="none" stroke-width="1" stroke-linecap="butt" stroke-linejoin="miter" stroke-miterlimit="10" stroke-dasharray="" stroke-dashoffset="0" font-family="none" font-weight="none" font-size="none" text-anchor="none" style="mix-blend-mode: normal"><g transform="scale(5.12,5.12)"><path d="M25,2c-12.65234,0 -23,9.59766 -23,21.5c0,6.50781 3.13281,12.28516 8,16.21875v8.9375l1.46875,-0.78125l7.21875,-3.75c2.01563,0.53906 4.11328,0.875 6.3125,0.875c12.65234,0 23,-9.59766 23,-21.5c0,-11.90234 -10.34766,-21.5 -23,-21.5zM25,4c11.64453,0 21,8.75781 21,19.5c0,10.74219 -9.35547,19.5 -21,19.5c-2.16406,0 -4.25781,-0.3125 -6.21875,-0.875l-0.375,-0.09375l-0.34375,0.1875l-6.0625,3.15625v-6.5625l-0.375,-0.28125c-4.66406,-3.58984 -7.625,-8.99219 -7.625,-15.03125c0,-10.74219 9.35547,-19.5 21,-19.5zM22.71875,17.71875l-12.03125,12.75l10.8125,-6.0625l5.78125,6.1875l11.875,-12.875l-10.53125,5.90625z"></path></g></g></svg>