<svg xmlns="http://www.w3.org/2000/svg" xmlns:xlink="http://www.w3.org/1999/xlink" viewBox="0,0,256,256" width="96px" height="96px"><defs><radialGradient cx="11.087" cy="42.978" r="47.612" gradientUnits="userSpaceOnUse" id="color-1"><stop offset="0" stop-color="#1292ff"></stop><stop offset="0.079" stop-color="#2982ff"></stop><stop offset="0.23" stop-color="#4e69ff"></stop><stop offset="0.351" stop-color="#6559ff"></stop><stop offset="0.428" stop-color="#6d53ff"></stop><stop offset="0.754" stop-color="#df47aa"></stop><stop offset="0.946" stop-color="#ff6257"></stop></radialGradient></defs><g transform="translate(-14.08,-14.08) scale(1.11,1.11)"><g fill="none" fill-rule="nonzero" stroke="none" stroke-width="1" stroke-linecap="butt" stroke-linejoin="miter" stroke-miterlimit="10" stroke-dasharray="" stroke-dashoffset="0" font-family="none" font-weight="none" font-size="none" text-anchor="none" style="mix-blend-mode: normal"><g transform="scale(5.33333,5.33333)"><path d="M44,23.5c0,10.77 -8.95,19.5 -20,19.5c-1.651,0 -3.25,-0.194 -4.784,-0.564c-0.465,-0.112 -0.951,-0.069 -1.379,0.145l-4.377,2.189c-1.13,0.565 -2.46,-0.257 -2.46,-1.521v-4.025c0,-0.575 -0.257,-1.111 -0.681,-1.499c-3.894,-3.56 -6.319,-8.615 -6.319,-14.225c0,-10.77 8.95,-19.5 20,-19.5c11.05,0 20,8.73 20,19.5z" fill="url(#color-1)"></path><path d="M34.992,17.292c-0.428,0 -0.843,0.142 -1.2,0.411l-5.694,4.215c-0.133,0.1 -0.28,0.15 -0.435,0.15c-0.15,0 -0.291,-0.047 -0.41,-0.136l-3.972,-2.99c-0.808,-0.601 -1.76,-0.918 -2.757,-0.918c-1.576,0 -3.025,0.791 -3.876,2.116l-1.211,1.891l-4.12,6.695c-0.392,0.614 -0.422,1.372 -0.071,2.014c0.358,0.654 1.034,1.06 1.764,1.06c0.428,0 0.843,-0.142 1.2,-0.411l5.694,-4.215c0.133,-0.1 0.28,-0.15 0.435,-0.15c0.15,0 0.291,0.047 0.41,0.136l3.972,2.99c0.809,0.602 1.76,0.918 2.757,0.918c1.576,0 3.025,-0.791 3.876,-2.116l1.211,-1.891l4.12,-6.695c0.392,-0.614 0.422,-1.372 0.071,-2.014c-0.358,-0.654 -1.034,-1.06 -1.764,-1.06z" fill="#000000" opacity="0.05"></path><path d="M34.992,17.792c-0.319,0 -0.63,0.107 -0.899,0.31l-5.697,4.218c-0.216,0.163 -0.468,0.248 -0.732,0.248c-0.259,0 -0.504,-0.082 -0.71,-0.236l-3.973,-2.991c-0.719,-0.535 -1.568,-0.817 -2.457,-0.817c-1.405,0 -2.696,0.705 -3.455,1.887l-1.21,1.891l-4.115,6.688c-0.297,0.465 -0.32,1.033 -0.058,1.511c0.266,0.486 0.787,0.8 1.325,0.8c0.319,0 0.63,-0.107 0.899,-0.31l5.697,-4.218c0.216,-0.163 0.468,-0.248 0.732,-0.248c0.259,0 0.504,0.082 0.71,0.236l3.973,2.991c0.719,0.535 1.568,0.817 2.457,0.817c1.405,0 2.696,-0.705 3.455,-1.887l1.21,-1.891l4.115,-6.688c0.297,-0.465 0.32,-1.033 0.058,-1.511c-0.266,-0.486 -0.786,-0.8 -1.325,-0.8z" fill="#000000" opacity="0.07"></path><path d="M34.394,18.501l-5.7,4.22c-0.61,0.46 -1.44,0.46 -2.04,0.01l-3.974,-2.991c-1.68,-1.25 -4.06,-0.82 -5.19,0.94l-1.21,1.89l-4.11,6.68c-0.6,0.94 0.55,2.01 1.44,1.34l5.7,-4.22c0.61,-0.46 1.44,-0.46 2.04,-0.01l3.974,2.991c1.68,1.25 4.06,0.82 5.19,-0.94l1.21,-1.89l4.11,-6.68c0.6,-0.94 -0.55,-2.01 -1.44,-1.34z" fill="#ffffff"></path></g></g></g></svg>