<?xml version="1.0" encoding="iso-8859-1"?>
<!-- Generator: Adobe Illustrator 19.0.0, SVG Export Plug-In . SVG Version: 6.00 Build 0)  -->
<svg version="1.1" id="Capa_1" xmlns="http://www.w3.org/2000/svg" xmlns:xlink="http://www.w3.org/1999/xlink" x="0px" y="0px"
	 viewBox="0 0 512 512" style="enable-background:new 0 0 512 512;" xml:space="preserve">
<g>
	<g>
		<path d="M498.826,206.613L317.294,24.881c-33.166-33.166-87.422-33.166-120.536-0.052L13.18,206.607
			C4.681,215.106,0,226.406,0,238.426V467c0,24.816,20.229,45,45,45h422c24.81,0,45-20.224,45-45V238.426
			C512,226.406,507.319,215.106,498.826,206.613z M217.919,46.094c10.776-10.776,24.929-16.163,39.083-16.163
			c14.151,0,28.303,5.387,39.073,16.157l179.713,179.911L361.827,339.96l-51.794-52.041c-14.166-14.166-33-21.967-53.033-21.967
			c-20.033,0-38.868,7.801-53.002,21.937l-52.177,51.877L36.288,225.944L217.919,46.094z M30,460.884V261.863l100.544,99.056
			L30,460.884z M51.311,482c17.556-17.456,155.204-154.31,173.869-172.867c8.5-8.5,19.8-13.18,31.82-13.18
			s23.32,4.681,31.794,13.155L460.866,482H51.311z M482,460.706l-99.011-99.482L482,262.213V460.706z"/>
	</g>
</g>
<g>
</g>
<g>
</g>
<g>
</g>
<g>
</g>
<g>
</g>
<g>
</g>
<g>
</g>
<g>
</g>
<g>
</g>
<g>
</g>
<g>
</g>
<g>
</g>
<g>
</g>
<g>
</g>
<g>
</g>
</svg>
